<?xml version="1.0" encoding="utf-8"?>
<svg xmlns="http://www.w3.org/2000/svg" viewBox="110 50 320 320" width="32" height="32">
  <circle cx="277.075" cy="215.324" r="145" style="stroke: rgb(0, 0, 0);"/>
  <path stroke-width="14" opacity="1.000000" d="M 209.226 227.045 C 209.554 236.286 210.294 245.737 209.49 255.06 C 208.717 264.031 212.827 270.057 219.028 275.449 C 230.271 285.224 247.467 287.357 260.844 280.59 C 262.889 279.556 264.793 278.072 266.431 276.468 C 291.354 252.082 316.222 227.642 341.368 203.058 C 341.682 226.464 342.186 250.038 341.645 273.587 C 341.147 295.287 323.656 311.817 301.439 312.026 C 270.009 312.322 238.567 312.44 207.14 311.964 C 192.293 311.74 179.552 306.147 171.755 292.828 C 167.044 284.779 166.855 276.115 169.554 267.4 C 170.064 265.752 171.493 264.264 172.785 262.979 C 184.807 251.02 196.893 239.12 209.226 227.045 Z" style="stroke: rgb(255, 255, 255);"/>
  <path stroke-width="14" opacity="1.000000" d="M 342.212 201.801 C 341.981 195.053 342.524 189.337 342.206 182.679 C 342.095 180.341 341.878 177.887 341.483 175.232 C 339.819 164.028 337.005 156.008 328.749 150.615 C 316.519 142.623 303.306 141.597 289.975 148.428 C 287.938 149.471 286.064 150.987 284.431 152.594 C 259.718 176.924 235.057 201.305 210.118 225.784 C 209.825 202.029 209.395 178.153 209.898 154.296 C 210.335 133.49 227.66 117.124 248.891 116.988 C 281.89 116.775 314.891 116.773 347.887 117.077 C 363.858 117.223 378.921 128.478 382.595 142.982 C 384.962 152.323 384.49 161.214 376.181 168.73 C 364.53 179.27 353.676 190.655 342.212 201.801 Z" style="stroke: rgb(255, 255, 255);"/>
</svg>
